<svg width="100%" viewBox="0 0 826 810" fill="none" xmlns="http://www.w3.org/2000/svg">
    <path d="M400.003 619.355C521.149 619.355 619.358 521.147 619.358 400C619.358 278.853 521.149 180.645 400.003 180.645C278.856 180.645 180.647 278.853 180.647 400C180.647 521.147 278.856 619.355 400.003 619.355Z" fill="url(#paint0_linear_1_14)" />
    <path d="M338.285 122.929L332.686 97.7421C215.873 123.65 123.656 215.871 97.7449 332.683L122.946 338.271C146.688 231.211 231.214 146.682 338.285 122.929Z" fill="#EDAF02" />
    <path d="M461.718 677.054L467.317 702.255C584.129 676.333 676.336 584.127 702.258 467.314L677.057 461.715C653.315 568.786 568.789 653.313 461.718 677.054Z" fill="#EDAF02" />
    <g clip-path="url(#clip0_1_14)">
        <circle cx="219.708" cy="581.888" r="194.324" fill="url(#paint1_linear_1_14)" />
        <circle cx="219.708" cy="581.888" r="182.844" fill="url(#paint2_linear_1_14)" />
        <path d="M219.358 362.532C98.4028 362.532 0.0027771 460.932 0.0027771 581.888C0.0027771 702.843 98.4028 801.243 219.355 801.243C340.308 801.243 438.708 702.843 438.708 581.888C438.708 460.932 340.311 362.532 219.358 362.532ZM219.358 775.434C112.637 775.434 25.8119 688.609 25.8119 581.885C25.8119 475.161 112.637 388.336 219.358 388.336C326.08 388.336 412.905 475.164 412.905 581.888C412.905 688.612 326.08 775.434 219.358 775.434Z" fill="#EDAF02" />
        <path fill-rule="evenodd" clip-rule="evenodd" d="M208.674 455.439H183.173V480.923C181.151 481.641 179.172 482.422 177.235 483.267C164.397 488.897 154.339 496.758 147.061 506.85C139.853 516.874 136.283 528.58 136.351 541.967C136.283 558.445 141.603 571.455 152.314 580.998C163.092 590.472 177.819 597.235 196.493 601.286L217.502 605.817C225.328 607.533 231.542 609.387 236.142 611.378C240.742 613.3 244.037 615.497 246.028 617.969C248.088 620.372 249.152 623.187 249.221 626.414C249.152 629.846 248.053 632.901 245.925 635.579C243.797 638.257 240.673 640.351 236.554 641.861C232.434 643.371 227.319 644.127 221.209 644.127C213.932 644.127 207.65 642.994 202.363 640.728C197.145 638.463 193.095 635.133 190.211 630.739C187.328 626.345 185.714 620.921 185.371 614.467H130.996C131.065 632.112 134.841 646.598 142.324 657.926C149.876 669.186 160.449 677.527 174.043 682.951C176.979 684.117 180.022 685.157 183.173 686.072V708.336H208.674V690.575C212.98 690.916 217.433 691.087 222.033 691.087C225.042 691.087 227.978 691.016 230.841 690.873V708.336H256.342V687.252C260.392 686.229 264.231 685.001 267.86 683.569C280.63 678.557 290.448 671.245 297.314 661.634C304.179 652.022 307.646 640.282 307.715 626.414C307.646 618.381 306.342 610.966 303.802 604.169C301.33 597.372 297.451 591.262 292.164 585.838C286.878 580.346 280.081 575.574 271.774 571.524C263.467 567.473 253.477 564.212 241.806 561.74L224.505 558.033C219.493 557.003 215.167 555.836 211.529 554.531C207.89 553.227 204.904 551.785 202.569 550.206C200.235 548.558 198.519 546.739 197.42 544.748C196.39 542.688 195.944 540.388 196.081 537.848C196.15 534.759 197.077 532.012 198.862 529.61C200.647 527.207 203.393 525.319 207.1 523.945C210.877 522.504 215.717 521.783 221.621 521.783C230.89 521.783 237.789 523.705 242.321 527.55C246.921 531.395 249.495 536.75 250.044 543.615H304.831C304.763 529.815 301.33 517.766 294.533 507.468C287.805 497.101 278.227 489.069 265.801 483.37C262.783 481.987 259.63 480.771 256.342 479.723V455.439H230.841V475.116C227.846 474.92 224.773 474.823 221.621 474.823C217.171 474.823 212.856 475.023 208.674 475.423V455.439Z" fill="url(#paint3_linear_1_14)" />
    </g>
    <g clip-path="url(#clip1_1_14)">
        <circle cx="607" cy="219.16" r="194.324" fill="url(#paint4_linear_1_14)" />
        <circle cx="607" cy="219.16" r="182.844" fill="url(#paint5_linear_1_14)" />
        <path d="M606.65 -0.195007C485.695 -0.195007 387.295 98.205 387.295 219.16C387.295 340.116 485.695 438.516 606.647 438.516C727.6 438.516 826 340.116 826 219.16C826 98.205 727.603 -0.195007 606.65 -0.195007ZM606.65 412.707C499.929 412.707 413.104 325.882 413.104 219.158C413.104 112.434 499.929 25.6086 606.65 25.6086C713.371 25.6086 800.196 112.436 800.196 219.16C800.196 325.885 713.371 412.707 606.65 412.707Z" fill="#EDAF02" />
        <path fill-rule="evenodd" clip-rule="evenodd" d="M608.717 92.1545H634.218V114.501C646.75 115.117 657.143 117.235 666.278 120.857C677.353 125.221 686.463 131.386 692.07 139.351C697.746 147.316 700.199 156.702 700.199 167.507C700.199 175.334 698.854 182.468 695.393 188.909C692.001 195.351 686.455 200.754 680.295 205.117C674.135 209.412 667.705 212.39 659.468 214.052V216.13C668.605 216.476 676.911 218.797 684.387 223.091C691.862 227.316 697.815 233.169 702.245 240.65C706.675 248.061 708.89 256.788 708.89 266.831C708.89 278.468 705.845 288.823 699.753 297.896C693.731 306.97 685.148 314.104 674.004 319.299C662.914 324.469 649.699 327.066 634.358 327.091V346.166H608.857V327.091H586.691V346.166H561.19V327.091H534.044V114.312H561.049V92.1545H586.55V114.312H608.717V92.1545ZM580.619 280.961H618.768C628.458 280.961 635.726 279.16 640.572 275.559C645.417 271.888 647.84 266.485 647.84 259.351C647.84 254.364 646.697 250.139 644.413 246.676C642.129 243.212 638.876 240.58 634.653 238.78C630.5 236.979 625.482 236.078 619.598 236.078H580.619V280.961ZM580.616 200.338H615.445C620.498 200.338 624.963 199.541 628.839 197.948C632.715 196.355 635.726 194.07 637.872 191.091C640.087 188.044 641.195 184.338 641.195 179.974C641.195 173.394 638.841 168.373 634.134 164.909C629.427 161.377 623.475 159.611 616.276 159.611H580.616V200.338Z" fill="url(#paint6_linear_1_14)" />
    </g>
    <defs>
        <linearGradient id="paint0_linear_1_14" x1="400.003" y1="180.645" x2="400.003" y2="619.355" gradientUnits="userSpaceOnUse">
            <stop stop-color="#764BA2" />
            <stop offset="1" stop-color="#667DEA" />
        </linearGradient>
        <linearGradient id="paint1_linear_1_14" x1="219.708" y1="387.564" x2="219.708" y2="776.212" gradientUnits="userSpaceOnUse">
            <stop stop-color="#AE7F00" />
            <stop offset="1" stop-color="#DDA202" />
        </linearGradient>
        <linearGradient id="paint2_linear_1_14" x1="219.708" y1="399.043" x2="219.708" y2="764.732" gradientUnits="userSpaceOnUse">
            <stop stop-color="#FFCD00" />
            <stop offset="1" stop-color="#FFCD00" stop-opacity="0.42" />
        </linearGradient>
        <linearGradient id="paint3_linear_1_14" x1="219.757" y1="407.615" x2="219.757" y2="758.615" gradientUnits="userSpaceOnUse">
            <stop stop-color="#EDAF02" />
            <stop offset="1" stop-color="#AE7F00" />
        </linearGradient>
        <linearGradient id="paint4_linear_1_14" x1="607" y1="24.8364" x2="607" y2="413.484" gradientUnits="userSpaceOnUse">
            <stop stop-color="#AE7F00" />
            <stop offset="1" stop-color="#DDA202" />
        </linearGradient>
        <linearGradient id="paint5_linear_1_14" x1="607" y1="36.3161" x2="607" y2="402.005" gradientUnits="userSpaceOnUse">
            <stop stop-color="#FFCD00" />
            <stop offset="1" stop-color="#FFCD00" stop-opacity="0.42" />
        </linearGradient>
        <linearGradient id="paint6_linear_1_14" x1="629.374" y1="75.6711" x2="629.374" y2="344.116" gradientUnits="userSpaceOnUse">
            <stop stop-color="#EDAF02" />
            <stop offset="1" stop-color="#AE7F00" />
        </linearGradient>
        <clipPath id="clip0_1_14">
            <rect width="438" height="438.516" fill="white" transform="translate(0.70816 362.727)" />
        </clipPath>
        <clipPath id="clip1_1_14">
            <rect width="438" height="443.509" fill="white" transform="translate(388)" />
        </clipPath>
    </defs>
</svg>