<svg width="37" height="39" viewBox="0 0 37 39" fill="none" xmlns="http://www.w3.org/2000/svg">
<path d="M13.701 7.94653C13.623 8.86111 13.623 10.0105 13.623 11.4644V28.1785C13.623 29.6325 13.623 30.782 13.7011 31.6965H12.123C8.58752 31.6965 6.81975 31.6965 5.72139 30.5372C4.62305 29.3777 4.62305 27.5118 4.62305 23.7799V15.8632C4.62305 12.1313 4.62305 10.2653 5.72139 9.1059C6.81975 7.94653 8.58752 7.94653 12.123 7.94653H13.701Z" fill="#262626"/>
<path fill-rule="evenodd" clip-rule="evenodd" d="M14.6839 4.63526C13.623 5.62799 13.623 7.44392 13.623 11.0758V28.5672C13.623 32.199 13.623 34.015 14.6839 35.0077C15.7448 36.0005 17.3663 35.7018 20.6094 35.1048L24.1026 34.4618C27.6944 33.8004 29.4902 33.4698 30.5567 32.0792C31.623 30.6887 31.623 28.6775 31.623 24.6552V14.9877C31.623 10.9654 31.623 8.95431 30.5567 7.56373C29.4902 6.17314 27.6944 5.84252 24.1026 5.18126L20.6094 4.53814C17.3663 3.94106 15.7448 3.64253 14.6839 4.63526ZM19.248 18.1645C19.248 17.4782 18.7443 16.9218 18.123 16.9218C17.5017 16.9218 16.998 17.4782 16.998 18.1645V21.4784C16.998 22.1648 17.5017 22.7212 18.123 22.7212C18.7443 22.7212 19.248 22.1648 19.248 21.4784V18.1645Z" fill="#464646"/>
</svg>
