<svg width="37" height="37" viewBox="0 0 37 37" fill="none" xmlns="http://www.w3.org/2000/svg">
<path d="M33.123 18.8765C33.123 27.1607 26.4072 33.8765 18.123 33.8765C9.83877 33.8765 3.12305 27.1607 3.12305 18.8765C3.12305 10.5922 9.83877 3.87646 18.123 3.87646C26.4072 3.87646 33.123 10.5922 33.123 18.8765Z" fill="#464646"/>
<path d="M18.123 12.0727C16.9379 12.0727 15.9771 12.9571 15.9771 14.048C15.9771 14.7753 15.3365 15.3648 14.5464 15.3648C13.7563 15.3648 13.1157 14.7753 13.1157 14.048C13.1157 11.5025 15.3577 9.43896 18.123 9.43896C20.8884 9.43896 23.1304 11.5025 23.1304 14.048C23.1304 15.2961 22.5896 16.4306 21.715 17.2594C21.5389 17.426 21.371 17.5805 21.2108 17.7278C20.7992 18.1064 20.4384 18.438 20.122 18.8124C19.7042 19.3065 19.5537 19.6697 19.5537 19.9739V21.2907C19.5537 22.018 18.9132 22.6076 18.123 22.6076C17.3329 22.6076 16.6924 22.018 16.6924 21.2907V19.9739C16.6924 18.8234 17.2742 17.8922 17.864 17.1948C18.3003 16.6787 18.8487 16.1748 19.2939 15.766C19.4282 15.6426 19.5529 15.5279 19.6624 15.4241C20.0394 15.0671 20.269 14.5836 20.269 14.048C20.269 12.9571 19.3082 12.0727 18.123 12.0727Z" fill="#262626"/>
<path d="M18.1231 28.3139C19.1767 28.3139 20.0307 27.5279 20.0307 26.5581C20.0307 25.5884 19.1767 24.8023 18.1231 24.8023C17.0696 24.8023 16.2156 25.5884 16.2156 26.5581C16.2156 27.5279 17.0696 28.3139 18.1231 28.3139Z" fill="#262626"/>
</svg>
