<svg width="37" height="37" viewBox="0 0 37 37" fill="none" xmlns="http://www.w3.org/2000/svg">
<path d="M13.623 3.87646C9.69305 3.87646 6.49805 7.07146 6.49805 11.0015C6.49805 14.8565 9.51305 17.9765 13.443 18.1115C13.563 18.0965 13.683 18.0965 13.773 18.1115C13.803 18.1115 13.818 18.1115 13.848 18.1115C13.863 18.1115 13.863 18.1115 13.878 18.1115C17.718 17.9765 20.733 14.8565 20.748 11.0015C20.748 7.07146 17.553 3.87646 13.623 3.87646Z" fill="#464646"/>
<path d="M21.2444 22.0998C17.0594 19.3098 10.2345 19.3098 6.01945 22.0998C4.11445 23.3748 3.06445 25.0998 3.06445 26.9448C3.06445 28.7898 4.11445 30.4998 6.00445 31.7598C8.10445 33.1698 10.8645 33.8748 13.6245 33.8748C16.3844 33.8748 19.1444 33.1698 21.2444 31.7598C23.1344 30.4848 24.1844 28.7748 24.1844 26.9148C24.1694 25.0698 23.1344 23.3598 21.2444 22.0998Z" fill="#464646"/>
<path d="M30.1071 11.8837C30.3471 14.7937 28.2771 17.3436 25.4121 17.6886C25.3971 17.6886 25.3971 17.6886 25.3821 17.6886H25.3371C25.2471 17.6886 25.1571 17.6886 25.0821 17.7186C23.6271 17.7936 22.2921 17.3286 21.2871 16.4736C22.8321 15.0937 23.7171 13.0237 23.5371 10.7737C23.4321 9.55868 23.0121 8.44868 22.3821 7.50368C22.9521 7.21868 23.6121 7.03869 24.2871 6.97869C27.2271 6.72369 29.8521 8.91368 30.1071 11.8837Z" fill="#262626"/>
<path d="M33.1055 25.7621C32.9855 27.2171 32.0555 28.4771 30.4955 29.3321C28.9955 30.1571 27.1055 30.5471 25.2305 30.5021C26.3105 29.5271 26.9405 28.3121 27.0605 27.0221C27.2105 25.1621 26.3255 23.3771 24.5555 21.9521C23.5505 21.1571 22.3805 20.5271 21.1055 20.0621C24.4205 19.1021 28.5905 19.7471 31.1555 21.8171C32.5355 22.9271 33.2405 24.3221 33.1055 25.7621Z" fill="#262626"/>
</svg>
