<svg width="37" height="37" viewBox="0 0 37 37" fill="none" xmlns="http://www.w3.org/2000/svg">
<path d="M13.623 24.1265C13.623 29.5115 17.988 33.8765 23.373 33.8765C28.758 33.8765 33.123 29.5115 33.123 24.1265C33.123 18.7415 28.758 14.3765 23.373 14.3765C23.118 14.3765 22.8481 14.3915 22.5931 14.4065C17.838 14.7815 14.028 18.5915 13.653 23.3465C13.638 23.6015 13.623 23.8715 13.623 24.1265Z" fill="#262626"/>
<path d="M3.12305 13.6265C3.12305 19.0115 7.48805 23.3765 12.873 23.3765C13.128 23.3765 13.398 23.3615 13.653 23.3465C14.028 18.5915 17.838 14.7815 22.5931 14.4065C22.6081 14.1515 22.623 13.8815 22.623 13.6265C22.623 8.24146 18.258 3.87646 12.873 3.87646C7.48805 3.87646 3.12305 8.24146 3.12305 13.6265Z" fill="#464646"/>
<path d="M27.738 3.87646H31.623C32.448 3.87646 33.123 4.55146 33.123 5.37646V9.26146C33.123 10.5965 31.5031 11.2715 30.5581 10.3265L26.6731 6.44148C25.7431 5.49648 26.403 3.87646 27.738 3.87646Z" fill="#262626"/>
<path d="M8.50846 33.8765H4.62346C3.79846 33.8765 3.12346 33.2015 3.12346 32.3765V28.4915C3.12346 27.1565 4.74346 26.4815 5.68846 27.4265L9.57346 31.3115C10.5035 32.2565 9.84346 33.8765 8.50846 33.8765Z" fill="#262626"/>
</svg>
