<svg width="37" height="37" viewBox="0 0 37 37" fill="none" xmlns="http://www.w3.org/2000/svg">
<path fill-rule="evenodd" clip-rule="evenodd" d="M31.9056 12.8821C31.8123 12.8764 31.7106 12.8764 31.6052 12.8765L31.5789 12.8765H27.4454C24.0383 12.8765 21.123 15.4806 21.123 18.8765C21.123 22.2723 24.0383 24.8765 27.4454 24.8765H31.5789H31.6052C31.7106 24.8765 31.8123 24.8765 31.9056 24.8708C33.2895 24.786 34.5135 23.7344 34.6164 22.2656C34.6232 22.1693 34.623 22.0655 34.623 21.9693V21.9431V15.8098V15.7837C34.623 15.6875 34.6232 15.5837 34.6164 15.4873C34.5135 14.0186 33.2895 12.967 31.9056 12.8821ZM27.0789 20.4765C27.9561 20.4765 28.6671 19.7601 28.6671 18.8765C28.6671 17.9928 27.9561 17.2764 27.0789 17.2764C26.2017 17.2764 25.4907 17.9928 25.4907 18.8765C25.4907 19.7601 26.2017 20.4765 27.0789 20.4765Z" fill="#262626"/>
<path d="M32.4777 13.2537C32.4777 11.4828 32.4133 9.58317 31.2813 8.22134C31.1719 8.08988 31.0557 7.96223 30.9318 7.83833C29.8092 6.71579 28.3857 6.21761 26.6271 5.98118C24.9183 5.75142 22.7349 5.75145 19.9782 5.75147H16.809C14.0523 5.75145 11.8688 5.75142 10.16 5.98118C8.40139 6.21761 6.97797 6.71579 5.85541 7.83833C4.73287 8.96088 4.2347 10.3843 3.99827 12.1429C3.76851 13.8517 3.76854 16.0352 3.76855 18.7919V18.9611C3.76854 21.7178 3.76851 23.9012 3.99827 25.61C4.2347 27.3686 4.73287 28.7921 5.85541 29.9147C6.97797 31.0371 8.40139 31.5353 10.16 31.7718C11.8688 32.0015 14.0523 32.0015 16.8088 32.0015H19.9782C22.7349 32.0015 24.9183 32.0015 26.6271 31.7718C28.3857 31.5353 29.8092 31.0371 30.9318 29.9147C31.2385 29.6078 31.4991 29.2781 31.7205 28.9244C32.3962 27.8451 32.4777 26.5224 32.4777 25.2492C32.4054 25.2515 32.3292 25.2515 32.2509 25.2515H28.0909C24.6838 25.2515 21.7686 22.6473 21.7686 19.2515C21.7686 15.8556 24.6838 13.2515 28.0909 13.2515H32.2507C32.329 13.2514 32.4054 13.2514 32.4777 13.2537Z" fill="#464646"/>
<path d="M8.74805 11.3765C8.12673 11.3765 7.62305 11.8801 7.62305 12.5015C7.62305 13.1228 8.12673 13.6265 8.74805 13.6265H14.748C15.3693 13.6265 15.873 13.1228 15.873 12.5015C15.873 11.8801 15.3693 11.3765 14.748 11.3765H8.74805Z" fill="#262626"/>
</svg>
