<svg width="86" height="84" viewBox="0 0 86 84" fill="none" xmlns="http://www.w3.org/2000/svg">
    <g clip-path="url(#clip0_1_71)">
        <path d="M79.8111 25.6087C79.8111 25.0782 79.4272 24.4542 78.9798 24.2045L37.9852 1.11434C37.5375 0.864718 36.77 0.864718 36.3224 1.11434L35.3951 1.64479C34.9474 1.89442 34.5637 2.51847 34.5637 3.04893V34.8448C34.5637 35.344 34.9474 35.9993 35.3951 36.2489L76.3893 59.3392C76.8374 59.5888 77.6045 59.5888 78.0526 59.3392L78.9798 58.8087C79.4272 58.5591 79.8111 57.9039 79.8111 57.4046V25.6087Z" fill="url(#paint0_linear_1_71)"/>
        <g opacity="0.7">
            <g opacity="0.7">
                <path opacity="0.7" d="M79.8111 25.6087C79.8111 25.0782 79.4272 24.4542 78.9798 24.2045L37.9852 1.11434C37.5375 0.864718 36.77 0.864718 36.3224 1.11434L35.3951 1.64479C34.9474 1.89442 34.5637 2.51847 34.5637 3.04893V34.8448C34.5637 35.344 34.9474 35.9993 35.3951 36.2489L76.3893 59.3392C76.8374 59.5888 77.6045 59.5888 78.0526 59.3392L78.9798 58.8087C79.4272 58.5591 79.8111 57.9039 79.8111 57.4046V25.6087Z" fill="white"/>
            </g>
        </g>
        <path d="M79.5556 24.8287L77.1896 26.1703L34.82 2.26886C34.9799 2.01923 35.1718 1.80081 35.3956 1.676L36.323 1.11434C36.7707 0.864718 37.5381 0.864718 37.9858 1.11434L78.9805 24.2045C79.2042 24.3294 79.4279 24.5478 79.5556 24.8287Z" fill="url(#paint1_linear_1_71)"/>
        <path opacity="0.8" d="M79.5556 24.8287L77.1896 26.1703L34.82 2.26886C34.9799 2.01923 35.1718 1.80081 35.3956 1.676L36.323 1.11434C36.7707 0.864718 37.5381 0.864718 37.9858 1.11434L78.9805 24.2045C79.2042 24.3294 79.4279 24.5478 79.5556 24.8287Z" fill="white"/>
        <path opacity="0.1" d="M79.8111 25.609V57.4049C79.8111 57.9353 79.4272 58.5594 78.9798 58.809L78.0526 59.3395C77.9884 59.3707 77.8924 59.4019 77.8282 59.4331C77.7329 59.4643 77.6045 59.4955 77.4768 59.4955C77.2531 59.5266 77.0294 59.5266 76.805 59.4643C76.7415 59.4643 76.709 59.4331 76.6455 59.4331C76.6138 59.4331 76.5813 59.4019 76.5495 59.4019C76.709 59.4643 76.8374 59.4331 76.9652 59.4019C77.1254 59.3082 77.2206 59.1523 77.2206 58.8714V27.0755C77.2206 26.7323 77.0611 26.4827 76.7732 26.389L77.2206 26.1395L79.5874 24.7977C79.7151 25.0785 79.8111 25.3594 79.8111 25.609Z" fill="url(#paint2_linear_1_71)"/>
        <path opacity="0.05" d="M79.8111 25.609V57.4049C79.8111 57.9353 79.4272 58.5594 78.9798 58.809L78.0526 59.3395C77.9884 59.3707 77.8924 59.4019 77.8282 59.4331C77.7329 59.4643 77.6045 59.4955 77.4768 59.4955C77.2531 59.5266 77.0294 59.5266 76.805 59.4643C76.7415 59.4643 76.709 59.4331 76.6455 59.4331C76.6138 59.4331 76.5813 59.4019 76.5495 59.4019C76.709 59.4643 76.8374 59.4331 76.9652 59.4019C77.1254 59.3082 77.2206 59.1523 77.2206 58.8714V27.0755C77.2206 26.7323 77.0611 26.4827 76.7732 26.389L77.2206 26.1395L79.5874 24.7977C79.7151 25.0785 79.8111 25.3594 79.8111 25.609Z" fill="black"/>
        <path opacity="0.2" d="M77.2206 26.1391L57.5229 33.3158C56.1159 33.815 54.5491 33.3158 53.7177 32.0989L50.5519 27.3872L34.7873 2.26878L49.9444 27.5433L34.5634 34.8447C34.5634 35.0944 34.6594 35.4064 34.8193 35.656L49.9764 27.6368L53.6537 33.3782C54.4851 34.6887 56.2119 35.2192 57.6508 34.5639L60.273 33.4406L76.9652 59.4015C77.1246 59.3079 77.2206 59.1518 77.2206 58.871V58.3406L60.3689 33.4094L77.2206 26.1391Z" fill="url(#paint3_linear_1_71)"/>
        <path opacity="0.05" d="M77.2206 26.1391L57.5229 33.3158C56.1159 33.815 54.5491 33.3158 53.7177 32.0989L50.5519 27.3872L34.7873 2.26878L49.9444 27.5433L34.5634 34.8447C34.5634 35.0944 34.6594 35.4064 34.8193 35.656L49.9764 27.6368L53.6537 33.3782C54.4851 34.6887 56.2119 35.2192 57.6508 34.5639L60.273 33.4406L76.9652 59.4015C77.1246 59.3079 77.2206 59.1518 77.2206 58.871V58.3406L60.3689 33.4094L77.2206 26.1391Z" fill="black"/>
        <path d="M66.2206 34.5937C66.2206 34.0632 65.8369 33.4392 65.3892 33.1895L24.3948 10.0994C23.9471 9.8497 23.1797 9.8497 22.732 10.0994L21.8046 10.6298C21.3569 10.8794 20.9733 11.5034 20.9733 12.0339V43.8297C20.9733 44.329 21.3569 44.9842 21.8046 45.2339L62.7991 68.3241C63.2467 68.5737 64.0142 68.5737 64.4619 68.3241L65.3892 67.7937C65.8369 67.544 66.2206 66.8887 66.2206 66.3895V34.5937Z" fill="url(#paint4_linear_1_71)"/>
        <g opacity="0.5">
            <g opacity="0.5">
                <path opacity="0.5" d="M66.2206 34.5937C66.2206 34.0632 65.8369 33.4392 65.3892 33.1895L24.3948 10.0994C23.9471 9.8497 23.1797 9.8497 22.732 10.0994L21.8046 10.6298C21.3569 10.8794 20.9733 11.5034 20.9733 12.0339V43.8297C20.9733 44.329 21.3569 44.9842 21.8046 45.2339L62.7991 68.3241C63.2467 68.5737 64.0142 68.5737 64.4619 68.3241L65.3892 67.7937C65.8369 67.544 66.2206 66.8887 66.2206 66.3895V34.5937Z" fill="white"/>
            </g>
        </g>
        <path d="M65.9654 33.7824L63.5991 35.1241L21.2297 11.2226C21.3895 10.973 21.5814 10.7546 21.8052 10.6298L22.7326 10.0994C23.1803 9.8497 23.9477 9.8497 24.3953 10.0994L65.3898 33.1895C65.6137 33.3144 65.8376 33.5328 65.9654 33.7824Z" fill="url(#paint5_linear_1_71)"/>
        <path opacity="0.6" d="M65.9654 33.7824L63.5991 35.1241L21.2297 11.2226C21.3895 10.973 21.5814 10.7546 21.8052 10.6298L22.7326 10.0994C23.1803 9.8497 23.9477 9.8497 24.3953 10.0994L65.3898 33.1895C65.6137 33.3144 65.8376 33.5328 65.9654 33.7824Z" fill="white"/>
        <path opacity="0.1" d="M66.2206 34.594V66.3899C66.2206 66.9203 65.8369 67.5444 65.3892 67.794L64.4619 68.3244C64.398 68.3557 64.302 68.3869 64.2381 68.4181C64.1421 68.4493 64.0142 68.4805 63.8863 68.4805C63.6625 68.5117 63.4386 68.5117 63.2148 68.4493C63.1509 68.4493 63.1189 68.4181 63.0549 68.4181C63.0229 68.4181 62.991 68.3869 62.959 68.3869C63.1189 68.4493 63.2468 68.4181 63.3427 68.3869C63.5026 68.2933 63.5985 68.1372 63.5985 67.8564V36.0605C63.5985 35.7173 63.4386 35.4676 63.1509 35.3741L63.5985 35.1244L65.9648 33.7827C66.1247 34.0636 66.2206 34.3444 66.2206 34.594Z" fill="black"/>
        <path opacity="0.4" d="M63.6303 35.1225L43.9325 42.2993C42.5255 42.7985 40.9586 42.2993 40.1272 41.0824L36.9615 36.3707L21.2289 11.2211L36.3539 36.5267L20.9731 43.8282C20.9731 44.0778 21.069 44.3898 21.2289 44.6395L36.3859 36.5891L40.0633 42.3304C40.8947 43.641 42.6214 44.1714 44.0604 43.5162L46.6825 42.3929L63.3425 68.3538C63.5024 68.2601 63.5983 68.1041 63.5983 67.8233V67.2928L46.7464 42.3617L63.6303 35.1225Z" fill="url(#paint6_linear_1_71)"/>
        <path opacity="0.05" d="M63.6303 35.1225L43.9325 42.2993C42.5255 42.7985 40.9586 42.2993 40.1272 41.0824L36.9615 36.3707L21.2289 11.2211L36.3539 36.5267L20.9731 43.8282C20.9731 44.0778 21.069 44.3898 21.2289 44.6395L36.3859 36.5891L40.0633 42.3304C40.8947 43.641 42.6214 44.1714 44.0604 43.5162L46.6825 42.3929L63.3425 68.3538C63.5024 68.2601 63.5983 68.1041 63.5983 67.8233V67.2928L46.7464 42.3617L63.6303 35.1225Z" fill="black"/>
        <path d="M52.5343 50.0732L9.87704 26.047L8.18223 27.0142C7.73456 27.2639 7.38281 27.8879 7.38281 28.356V59.0597C7.38281 59.559 7.73456 60.1518 8.18223 60.4015L49.2407 83.5543C49.6883 83.8041 50.3919 83.8041 50.8396 83.5543L51.7349 83.0549C52.1826 82.8052 52.5343 82.1812 52.5343 81.7131V50.0732Z" fill="url(#paint7_linear_1_71)"/>
        <path opacity="0.2" d="M52.5343 50.0732L9.87704 26.047L8.18223 27.0142C7.73456 27.2639 7.38281 27.8879 7.38281 28.356V59.0597C7.38281 59.559 7.73456 60.1518 8.18223 60.4015L49.2407 83.5543C49.6883 83.8041 50.3919 83.8041 50.8396 83.5543L51.7349 83.0549C52.1826 82.8052 52.5343 82.1812 52.5343 81.7131V50.0732Z" fill="black"/>
        <path d="M10.1328 23.3306L9.973 23.2369L10.6445 22.8625C10.7084 22.8313 10.7724 22.8001 10.8364 22.7689L29.5748 15.9978C30.0865 15.8106 30.726 16.029 31.0138 16.4347L51.9907 46.3896C52.2784 46.8264 52.5343 47.5753 52.5343 48.1058C52.5343 48.9482 52.5343 50.1027 52.5343 50.1027L51.8948 50.4772L9.909 26.0764V24.0794C9.909 23.7986 9.973 23.549 10.1328 23.3306Z" fill="url(#paint8_linear_1_71)"/>
        <path opacity="0.1" d="M30.151 16.5924C30.2469 16.6549 30.3109 16.7484 30.3749 16.8108L51.3517 46.7346C51.5116 46.953 51.6395 47.265 51.7354 47.5771L52.3749 47.2026C52.343 47.0466 52.279 46.8906 52.2151 46.7658C52.1831 46.7034 52.1511 46.641 52.1191 46.5786C52.1191 46.5786 52.1191 46.5473 52.0872 46.5473C52.0552 46.4849 52.0232 46.4226 51.9913 46.3602L30.9824 16.4365C30.9504 16.4052 30.9184 16.3428 30.8865 16.3116C30.8545 16.2804 30.8225 16.2492 30.7585 16.218L30.151 16.5924Z" fill="black"/>
        <path opacity="0.35" d="M9.9733 23.2407C10.0372 23.2096 10.1012 23.1783 10.1651 23.1472L28.9036 16.3761C29.2874 16.2201 29.799 16.3449 30.1188 16.5945L30.7583 16.2201C30.4065 15.9393 29.9269 15.8456 29.5432 16.0017L10.7727 22.8039C10.7087 22.8351 10.6448 22.8664 10.5808 22.8975L9.9733 23.2407Z" fill="white"/>
        <path d="M30.8856 16.3443C30.8538 16.3131 30.822 16.2819 30.7583 16.2507C30.822 16.2507 30.8538 16.2819 30.8856 16.3443Z" fill="url(#paint9_linear_1_71)"/>
        <path d="M52.4064 47.2316C52.3427 47.0756 52.3109 46.9195 52.2472 46.7636C52.2791 46.9195 52.3427 47.0756 52.4064 47.2316Z" fill="url(#paint10_linear_1_71)"/>
        <path opacity="0.2" d="M31.0141 16.4687C30.9822 16.4375 30.9504 16.3751 30.9186 16.3439C30.9504 16.3751 30.9822 16.4063 31.0141 16.4687Z" fill="black"/>
        <path d="M30.3431 16.8122L51.352 46.7359C51.6397 47.1728 51.8955 47.9216 51.8955 48.452C51.8955 49.2946 51.8955 50.4491 51.8955 50.4491L9.23825 26.4228V24.4257C9.23825 23.8953 9.65396 23.3336 10.1337 23.1776L28.9041 16.3754C29.4158 16.1881 30.0553 16.4065 30.3431 16.8122Z" fill="url(#paint11_linear_1_71)"/>
        <path opacity="0.05" d="M9.23758 24.4227C9.23758 24.173 9.33348 23.9234 9.46141 23.7362L51.735 47.6065C51.8309 47.8874 51.8948 48.1993 51.8948 48.449C51.8948 49.2914 51.8948 50.4459 51.8948 50.4459L9.23758 26.4196V24.4227Z" fill="black"/>
        <path d="M11.0603 15.9978C11.0603 15.7794 11.1243 15.6234 11.2522 15.561C11.3801 15.4986 12.4354 14.9057 12.5632 14.8122C12.6912 14.7497 12.8511 14.7497 13.0429 14.8746L48.0257 34.5636C48.4094 34.782 48.7292 35.3125 48.7292 35.7493V76.6253C48.7292 76.8437 48.6652 76.9995 48.5373 77.0622C48.4094 77.1248 47.3542 77.7174 47.2263 77.78C47.0984 77.8419 46.9385 77.8419 46.7466 77.7174L11.7638 58.0283C11.3801 57.8099 11.0603 57.2794 11.0603 56.8738V15.9978Z" fill="#F0F0F0"/>
        <path d="M46.7467 77.7494L11.7639 58.0294C11.3802 57.811 11.0605 57.2806 11.0605 56.8438V15.9678C11.0605 15.531 11.3802 15.3749 11.7639 15.5621L46.7467 35.3137C47.1305 35.5321 47.4502 36.0626 47.4502 36.4994V77.3752C47.4182 77.7808 47.1305 77.9679 46.7467 77.7494Z" fill="#FAFAFA"/>
        <path d="M34.3394 42.6463C34.3075 42.147 34.2116 41.7102 34.0836 41.2734C33.9557 40.8365 33.7639 40.4621 33.572 40.1188C33.3802 39.7756 33.1563 39.4948 32.9005 39.2451C32.6447 38.9955 32.4208 38.8083 32.165 38.6835C31.7174 38.465 31.3975 38.3714 31.1417 38.4339C30.9179 38.4963 30.726 38.5898 30.6301 38.7459C30.5661 38.5898 30.4702 38.4339 30.4063 38.2466C30.3103 38.0906 30.2144 37.9346 30.0865 37.7474C29.9586 37.5914 29.7987 37.4353 29.6069 37.2793C29.415 37.1234 29.1912 36.9673 28.9034 36.8425C28.5836 36.6865 28.2958 36.624 28.04 36.6865C27.7841 36.7489 27.5603 36.8737 27.4005 37.1234C27.2406 37.3729 27.1126 37.685 27.0167 38.1218C26.9208 38.5274 26.9208 39.0267 26.9208 39.6195C26.9527 40.1812 27.0167 40.7429 27.1446 41.2421C27.2725 41.7726 27.4005 42.2406 27.5923 42.6463C27.7841 43.0831 28.008 43.4576 28.2639 43.7695C28.5197 44.0816 28.8394 44.3312 29.1592 44.4872C29.511 44.6745 29.7668 44.7369 29.9586 44.6432C30.1185 44.5808 30.2784 44.456 30.3743 44.2688V44.4248C30.3743 44.5497 30.4063 44.7056 30.5022 44.8305C30.5661 44.9553 30.6621 45.0489 30.758 45.1113L31.4296 45.4545C31.5255 45.5169 31.6214 45.4857 31.6854 45.4234C31.7493 45.3609 31.7813 45.2673 31.7813 45.1113L31.6214 41.1173C31.6214 40.8053 31.6534 40.6181 31.7813 40.5245C31.9092 40.4308 32.0691 40.4308 32.229 40.5245C32.3889 40.6181 32.5488 40.774 32.7087 40.9925C32.8365 41.2109 32.9325 41.5542 32.9645 41.9598C32.9964 42.303 33.0284 42.6774 33.0284 43.0207C33.0284 43.3951 33.0604 43.7384 33.0284 44.0504C32.9964 44.7056 32.9325 45.2673 32.7726 45.7042C32.6127 46.141 32.4208 46.453 32.1331 46.6714C31.8453 46.8587 31.4935 46.9523 31.0458 46.8898C30.5982 46.8587 30.0865 46.6714 29.4789 46.3594C28.9673 46.1098 28.5197 45.7666 28.1039 45.3609C27.6882 44.9553 27.3365 44.4872 27.0167 43.988C26.6969 43.4887 26.4731 42.9271 26.2812 42.3342C26.0894 41.7414 25.9615 41.1173 25.8655 40.4932C25.8336 40.3372 25.8336 40.0876 25.8016 39.838C25.8016 39.5571 25.7696 39.2763 25.7696 38.9955C25.7696 38.7147 25.7377 38.4339 25.7377 38.153C25.7377 37.8722 25.7377 37.6538 25.7377 37.4977C25.7696 36.9361 25.8655 36.4369 26.0254 36.0312C26.1853 35.6256 26.4092 35.3135 26.665 35.0639C26.9527 34.8455 27.2725 34.7207 27.6563 34.7207C28.04 34.7207 28.4877 34.8455 28.9993 35.0951C29.3511 35.2824 29.6708 35.4695 29.9266 35.6256C30.1825 35.8128 30.4383 36 30.6301 36.1872C30.822 36.3745 31.0139 36.5616 31.1417 36.7177C31.3016 36.9049 31.4296 37.0609 31.5255 37.2481C31.6214 37.4042 31.7173 37.4977 31.7493 37.5914C31.8132 37.6538 31.8773 37.7161 31.9731 37.7786L32.9325 38.2779C33.0284 38.3402 33.1244 38.309 33.1883 38.2779C33.2522 38.2155 33.2842 38.1218 33.2842 37.9346C33.2842 37.841 33.2522 37.7161 33.1883 37.6226C32.9964 37.2793 32.7726 36.9049 32.5168 36.4993C32.261 36.0936 31.9732 35.7192 31.6534 35.3447C31.3336 34.9703 30.9179 34.5959 30.4702 34.2526C30.0226 33.8782 29.4789 33.5661 28.8713 33.2542C28.1039 32.8797 27.4324 32.6925 26.8888 32.7237C26.3132 32.7549 25.8655 32.9421 25.4819 33.2853C25.0981 33.6286 24.8103 34.0966 24.6184 34.7207C24.4266 35.3135 24.2987 36 24.2987 36.7801C24.2987 36.9361 24.2987 37.1857 24.2987 37.4666C24.2987 37.7474 24.3306 38.0594 24.3306 38.3714C24.3306 38.6835 24.3626 38.9955 24.3626 39.2763C24.3626 39.5571 24.3946 39.8068 24.3946 39.9628C24.4586 40.774 24.6184 41.5853 24.8743 42.3966C25.1301 43.2391 25.4818 44.0192 25.8975 44.7681C26.3132 45.5169 26.8249 46.2034 27.4324 46.8274C28.04 47.4515 28.7115 47.9508 29.4789 48.3252C30.3743 48.7621 31.1098 48.9805 31.7493 48.9805C32.3569 48.9805 32.8365 48.8245 33.2203 48.4812C33.604 48.138 33.8598 47.67 34.0517 47.0459C34.2116 46.4218 34.3075 45.7042 34.3394 44.924C34.3394 44.6121 34.3394 44.2376 34.3075 43.8008C34.4034 43.3639 34.3714 42.9895 34.3394 42.6463ZM28.3597 40.3684C28.3278 39.7444 28.3917 39.3076 28.5516 39.0579C28.7115 38.8083 28.9354 38.7459 29.2551 38.9019C29.5749 39.0579 29.8307 39.3387 29.9906 39.7756C30.1504 40.1812 30.2784 40.7116 30.2784 41.3357C30.3103 41.9598 30.2464 42.3966 30.0865 42.6463C29.9266 42.8959 29.7028 42.9583 29.383 42.8023C29.0632 42.6463 28.8394 42.3655 28.6475 41.9286C28.4877 41.4918 28.3597 40.9613 28.3597 40.3684Z" fill="#FF9700"/>
        <path d="M47.4501 77.3752C47.4501 77.5623 47.3861 77.7189 47.2902 77.7808C47.5141 77.6563 48.4414 77.1255 48.5373 77.0636C48.6652 77.001 48.7292 76.8452 48.7292 76.6268V35.7505C48.7292 35.5321 48.6652 35.3137 48.5373 35.0952L47.2263 35.8129C47.3542 36.0313 47.4181 36.281 47.4181 36.4682V77.3752H47.4501Z" fill="#E0E0E0"/>
        <path d="M8.47018 59.4638C8.47018 59.495 8.50215 59.4949 8.50215 59.5261L26.2813 54.0344C27.6883 53.4416 29.3191 53.9096 30.1186 55.189L49.1129 82.7411L49.8164 83.1466C50.0402 83.2719 50.2321 83.2719 50.3599 83.2093L30.822 54.8145C30.0226 53.5352 28.3598 53.0671 26.9848 53.66L8.47018 59.4638Z" fill="url(#paint12_linear_1_71)"/>
        <path opacity="0.4" d="M31.8773 57.9039L31.8453 57.8728L49.1129 82.7418L49.8164 83.1474C50.0402 83.2719 50.2321 83.2719 50.3599 83.2092L32.5488 57.4983L31.8773 57.9039Z" fill="white"/>
        <path opacity="0.4" d="M8.47055 59.4653C8.47055 59.4965 8.50259 59.4965 8.50259 59.5277L26.2818 54.036C27.6887 53.4431 29.3196 53.9111 30.119 55.1905L30.8225 54.7848C30.023 53.5367 28.3923 53.0374 26.9852 53.6303L8.47055 59.4653Z" fill="white"/>
        <path d="M7.41495 28.1674C7.44692 27.949 7.57483 27.8866 7.73472 27.9802C7.79867 28.0114 7.86263 28.105 7.92658 28.1987L8.02251 28.3235L25.5459 54.3468L28.168 57.9039C28.4558 58.3095 29.0953 58.5592 29.607 58.4344L31.8773 57.9039L49.1449 51.6945C49.2728 51.6633 49.4007 51.6633 49.4967 51.6945C49.5287 51.6945 49.5926 51.7257 49.6246 51.7257L48.9851 51.3513L32.4529 57.2798L30.2785 58.0287C29.7669 58.1535 29.1273 57.9039 28.8395 57.4983L26.2175 53.9411L8.59811 27.793C8.53418 27.7306 8.47017 27.6682 8.40624 27.6058L9.94112 26.7321L9.30158 26.3577L8.24635 26.9505C7.79867 27.2314 7.4789 27.6994 7.41495 28.1674Z" fill="url(#paint13_linear_1_71)"/>
        <path opacity="0.4" d="M25.5465 54.3157L28.1686 57.8728C28.4564 58.2785 29.0959 58.5281 29.6076 58.4032L31.8779 57.8728L31.846 57.8416L31.75 57.6856L30.2791 58.0289C29.7675 58.1537 29.1279 57.904 28.8401 57.4984L26.25 53.9724L25.5465 54.3157Z" fill="white"/>
        <path opacity="0.1" d="M8.18233 27.0117L9.23756 26.4188L9.8771 26.762L8.34222 27.6357C8.40615 27.6981 8.50212 27.7293 8.53409 27.823L26.1534 53.9711L26.1854 54.0023L25.5459 54.3456L7.99047 28.3222L7.89454 28.1974C7.83059 28.1038 7.76663 28.0414 7.70268 27.979C7.54279 27.8854 7.41488 27.9478 7.3829 28.1662C7.47884 27.6981 7.79861 27.2301 8.18233 27.0117Z" fill="black"/>
        <path d="M48.7934 52.1922L52.5667 50.0704V81.6788C52.5667 82.1783 52.215 82.7709 51.7673 83.0207L50.872 83.5201C50.4243 83.7699 49.7208 83.7699 49.2731 83.5201L48.7934 83.3017V52.1922Z" fill="url(#paint14_linear_1_71)"/>
        <path opacity="0.15" d="M48.7934 52.1922L52.5667 50.0704V81.6788C52.5667 82.1783 52.215 82.7709 51.7673 83.0207L50.872 83.5201C50.4243 83.7699 49.7208 83.7699 49.2731 83.5201L48.7934 83.3017V52.1922Z" fill="black"/>
        <path d="M7.38327 28.3552V59.0589C7.38327 59.3085 7.4792 59.5894 7.63908 59.839C7.76699 60.0574 7.92688 60.2134 8.11874 60.3695H8.15072C8.18269 60.3695 8.18269 60.4006 8.21467 60.4006L49.2412 83.5536C49.465 83.6781 49.6568 83.6781 49.7847 83.6155C49.9127 83.5536 50.0086 83.4284 50.0405 83.2413C50.0405 83.21 50.0405 83.1474 50.0405 83.1168V52.4127C50.0405 51.9134 49.6568 51.6014 49.1452 51.7263L31.8776 57.9356L29.6072 58.4661C29.0956 58.5909 28.4561 58.3413 28.1683 57.9356L25.5462 54.3785L8.02281 28.3552L7.92687 28.2303C7.63908 27.7935 7.38327 27.856 7.38327 28.3552Z" fill="url(#paint15_linear_1_71)"/>
        <path d="M8.18267 60.4303C8.15069 60.4303 8.15069 60.3991 8.11871 60.3991L8.08673 60.3679C7.89487 60.2431 7.73499 60.0559 7.60708 59.8686C7.44719 59.619 7.35126 59.3382 7.35126 59.0886L25.5142 54.3457L13.3629 63.3634L8.18267 60.4303Z" fill="url(#paint16_linear_1_71)"/>
        <path opacity="0.2" d="M8.18267 60.4303C8.15069 60.4303 8.15069 60.3991 8.11871 60.3991L8.08673 60.3679C7.89487 60.2431 7.73499 60.0559 7.60708 59.8686C7.44719 59.619 7.35126 59.3382 7.35126 59.0886L25.5142 54.3457L13.3629 63.3634L8.18267 60.4303Z" fill="black"/>
        <path d="M50.0405 83.0855C50.0405 83.3352 49.9446 83.5223 49.7847 83.6162C49.6568 83.6789 49.465 83.6789 49.2412 83.5536L35.1073 75.5973L31.8776 57.905L50.0405 82.5868V83.0855Z" fill="url(#paint17_linear_1_71)"/>
        <path opacity="0.15" d="M30.1189 55.1874L49.7848 83.6133C49.9447 83.5507 50.0406 83.3636 50.0406 83.1139V82.6151L30.8544 54.8441L30.1189 55.1874Z" fill="black"/>
        <path d="M7.63898 59.8675C7.76689 60.086 7.92677 60.242 8.11864 60.3668L8.1506 60.3979L49.241 83.5507C49.4649 83.6752 49.6567 83.6752 49.7846 83.6133L30.1188 55.1871C29.3194 53.9077 27.6566 53.4397 26.2496 54.0326L7.63898 59.8675Z" fill="url(#paint18_linear_1_71)"/>
        <path opacity="0.15" d="M52.4068 47.2321L51.7673 47.6065C51.8633 47.9186 51.9272 48.1994 51.9272 48.449C51.9272 49.2915 51.9272 50.446 51.9272 50.446L52.5667 50.0716C52.5667 50.0716 52.5667 48.9482 52.5667 48.0745C52.5348 47.825 52.5028 47.5442 52.4068 47.2321Z" fill="black"/>
        <path d="M48.9537 51.3498L49.6252 51.7242L50.2648 51.3498L51.8955 50.4448L51.256 50.0704L48.9537 51.3498Z" fill="url(#paint19_linear_1_71)"/>
        <path opacity="0.1" d="M48.9217 51.3498L51.256 50.0704L51.8955 50.4448L50.2647 51.3498L49.5932 51.7242C49.5612 51.693 49.4973 51.693 49.4653 51.693C49.3693 51.6618 49.2415 51.6618 49.1135 51.693L47.8025 52.1611L32.7413 57.5592L32.5175 57.2159L48.9217 51.3498Z" fill="black"/>
    </g>
    <defs>
        <linearGradient id="paint0_linear_1_71" x1="98.933" y1="16.8325" x2="56.0185" y2="70.3368" gradientUnits="userSpaceOnUse">
            <stop stop-color="#00A9FF"/>
            <stop offset="0.231" stop-color="#009CFF"/>
            <stop offset="0.5645" stop-color="#0083FF"/>
        </linearGradient>
        <linearGradient id="paint1_linear_1_71" x1="98.4613" y1="7.77883" x2="86.6653" y2="41.5325" gradientUnits="userSpaceOnUse">
            <stop stop-color="#00A9FF"/>
            <stop offset="0.231" stop-color="#009CFF"/>
            <stop offset="0.5645" stop-color="#0083FF"/>
        </linearGradient>
        <linearGradient id="paint2_linear_1_71" x1="81.1894" y1="34.2212" x2="73.4652" y2="35.3929" gradientUnits="userSpaceOnUse">
            <stop stop-color="#00A9FF"/>
            <stop offset="0.231" stop-color="#009CFF"/>
            <stop offset="0.5645" stop-color="#0083FF"/>
        </linearGradient>
        <linearGradient id="paint3_linear_1_71" x1="95.2477" y1="17.7762" x2="53.124" y2="68.5593" gradientUnits="userSpaceOnUse">
            <stop stop-color="#00A9FF"/>
            <stop offset="0.231" stop-color="#009CFF"/>
            <stop offset="0.5645" stop-color="#0083FF"/>
        </linearGradient>
        <linearGradient id="paint4_linear_1_71" x1="85.342" y1="25.8175" x2="42.428" y2="79.3219" gradientUnits="userSpaceOnUse">
            <stop stop-color="#00A9FF"/>
            <stop offset="0.231" stop-color="#009CFF"/>
            <stop offset="0.5645" stop-color="#0083FF"/>
        </linearGradient>
        <linearGradient id="paint5_linear_1_71" x1="84.871" y1="16.7554" x2="73.101" y2="50.4764" gradientUnits="userSpaceOnUse">
            <stop stop-color="#00A9FF"/>
            <stop offset="0.231" stop-color="#009CFF"/>
            <stop offset="0.5645" stop-color="#0083FF"/>
        </linearGradient>
        <linearGradient id="paint6_linear_1_71" x1="81.6574" y1="26.7285" x2="39.5336" y2="77.5113" gradientUnits="userSpaceOnUse">
            <stop stop-color="#00A9FF"/>
            <stop offset="0.231" stop-color="#009CFF"/>
            <stop offset="0.5645" stop-color="#0083FF"/>
        </linearGradient>
        <linearGradient id="paint7_linear_1_71" x1="71.6154" y1="41.7068" x2="29.4906" y2="94.9376" gradientUnits="userSpaceOnUse">
            <stop stop-color="#00A9FF"/>
            <stop offset="0.231" stop-color="#009CFF"/>
            <stop offset="0.5645" stop-color="#0083FF"/>
        </linearGradient>
        <linearGradient id="paint8_linear_1_71" x1="70.5478" y1="25.3071" x2="49.7652" y2="66.711" gradientUnits="userSpaceOnUse">
            <stop stop-color="#00A9FF"/>
            <stop offset="0.231" stop-color="#009CFF"/>
            <stop offset="0.5645" stop-color="#0083FF"/>
        </linearGradient>
        <linearGradient id="paint9_linear_1_71" x1="30.9395" y1="16.2762" x2="30.8865" y2="16.3925" gradientUnits="userSpaceOnUse">
            <stop stop-color="#00A9FF"/>
            <stop offset="0.231" stop-color="#009CFF"/>
            <stop offset="0.5645" stop-color="#0083FF"/>
        </linearGradient>
        <linearGradient id="paint10_linear_1_71" x1="52.4737" y1="46.8906" x2="52.1774" y2="47.0533" gradientUnits="userSpaceOnUse">
            <stop stop-color="#00A9FF"/>
            <stop offset="0.231" stop-color="#009CFF"/>
            <stop offset="0.5645" stop-color="#0083FF"/>
        </linearGradient>
        <linearGradient id="paint11_linear_1_71" x1="69.9226" y1="25.5746" x2="49.5385" y2="66.6976" gradientUnits="userSpaceOnUse">
            <stop stop-color="#00A9FF"/>
            <stop offset="0.231" stop-color="#009CFF"/>
            <stop offset="0.5645" stop-color="#0083FF"/>
        </linearGradient>
        <linearGradient id="paint12_linear_1_71" x1="68.0626" y1="61.5064" x2="51.5241" y2="98.9887" gradientUnits="userSpaceOnUse">
            <stop stop-color="#00A9FF"/>
            <stop offset="0.231" stop-color="#009CFF"/>
            <stop offset="0.5645" stop-color="#0083FF"/>
        </linearGradient>
        <linearGradient id="paint13_linear_1_71" x1="67.4624" y1="35.073" x2="48.8878" y2="74.4996" gradientUnits="userSpaceOnUse">
            <stop stop-color="#00A9FF"/>
            <stop offset="0.231" stop-color="#009CFF"/>
            <stop offset="0.5645" stop-color="#0083FF"/>
        </linearGradient>
        <linearGradient id="paint14_linear_1_71" x1="54.1613" y1="59.2004" x2="45.3101" y2="60.8036" gradientUnits="userSpaceOnUse">
            <stop stop-color="#00A9FF"/>
            <stop offset="0.231" stop-color="#009CFF"/>
            <stop offset="0.5645" stop-color="#0083FF"/>
        </linearGradient>
        <linearGradient id="paint15_linear_1_71" x1="68.0676" y1="43.0618" x2="27.1889" y2="93.5952" gradientUnits="userSpaceOnUse">
            <stop stop-color="#00A9FF"/>
            <stop offset="0.231" stop-color="#009CFF"/>
            <stop offset="0.5645" stop-color="#0083FF"/>
        </linearGradient>
        <linearGradient id="paint16_linear_1_71" x1="33.1898" y1="56.7933" x2="29.3888" y2="69.1551" gradientUnits="userSpaceOnUse">
            <stop stop-color="#00A9FF"/>
            <stop offset="0.231" stop-color="#009CFF"/>
            <stop offset="0.5645" stop-color="#0083FF"/>
        </linearGradient>
        <linearGradient id="paint17_linear_1_71" x1="57.7163" y1="64.8949" x2="38.5585" y2="86.7118" gradientUnits="userSpaceOnUse">
            <stop stop-color="#00A9FF"/>
            <stop offset="0.231" stop-color="#009CFF"/>
            <stop offset="0.5645" stop-color="#0083FF"/>
        </linearGradient>
        <linearGradient id="paint18_linear_1_71" x1="67.5954" y1="61.8874" x2="51.0959" y2="99.4704" gradientUnits="userSpaceOnUse">
            <stop stop-color="#00A9FF"/>
            <stop offset="0.231" stop-color="#009CFF"/>
            <stop offset="0.5645" stop-color="#0083FF"/>
        </linearGradient>
        <linearGradient id="paint19_linear_1_71" x1="53.1388" y1="50.5193" x2="52.3683" y2="52.7325" gradientUnits="userSpaceOnUse">
            <stop stop-color="#00A9FF"/>
            <stop offset="0.231" stop-color="#009CFF"/>
            <stop offset="0.5645" stop-color="#0083FF"/>
        </linearGradient>
        <clipPath id="clip0_1_71">
            <rect width="84.1597" height="83" fill="white" transform="translate(0.911377 0.927124)"/>
        </clipPath>
    </defs>
</svg>