<svg width="424" height="279" viewBox="0 0 424 279" fill="none" xmlns="http://www.w3.org/2000/svg">
<path d="M134.524 167.105L134.496 167.08L134.468 167.057C119.542 154.62 117.433 148.235 118.242 143.48C118.599 141.384 119.514 139.498 120.58 137.301C120.817 136.813 121.061 136.31 121.308 135.786C122.631 132.979 123.918 129.764 123.918 125.687C123.918 121.75 122.857 118.278 121.783 115.133C121.64 114.715 121.498 114.304 121.358 113.899C120.421 111.196 119.583 108.777 119.329 106.284C119.048 103.523 119.495 100.677 121.562 97.4313C123.665 94.1304 127.478 90.3645 134.045 85.9068L134.109 85.8632L134.168 85.8133C142.804 78.5445 150.502 70.842 157.845 63.4172C158.31 62.9468 158.774 62.4775 159.236 62.0096C166.088 55.0765 172.648 48.4382 179.465 42.5906C193.977 30.1431 209.516 21.3976 231.006 21.3976C288.821 21.3976 335.689 68.2659 335.689 126.081C335.689 183.896 288.821 230.764 231.006 230.764C209.662 230.764 192.276 221.112 176.822 208.271C169.094 201.849 161.879 194.656 154.907 187.507C153.623 186.19 152.347 184.874 151.076 183.565C145.468 177.783 139.983 172.129 134.524 167.105Z" fill="#FFCD00" stroke="black" stroke-width="3"/>
<circle cx="199.596" cy="184.482" r="26.7958" fill="#EDAF02" stroke="black"/>
<circle cx="199.596" cy="184.482" r="21.9512" fill="#EDAF02" stroke="black"/>
<path d="M362.205 232.139C360.003 253.985 430.049 250.417 422.657 232.12L362.205 232.139Z" fill="#EDAF02" stroke="black" stroke-linecap="round"/>
<path d="M362.027 228.077C359.825 249.923 429.87 246.355 422.478 228.059L362.027 228.077Z" fill="#EDAF02" stroke="black" stroke-linecap="round"/>
<path d="M361.851 224.016C359.649 245.861 429.694 242.293 422.302 223.997L361.851 224.016Z" fill="#EDAF02" stroke="black" stroke-linecap="round"/>
<path d="M361.677 219.954C359.475 241.799 429.521 238.231 422.129 219.935L361.677 219.954Z" fill="#EDAF02" stroke="black" stroke-linecap="round"/>
<path d="M361.501 215.892C359.299 237.738 429.345 234.169 421.953 215.873L361.501 215.892Z" fill="#EDAF02" stroke="black" stroke-linecap="round"/>
<path d="M361.325 211.83C359.123 233.676 429.169 230.108 421.777 211.811L361.325 211.83Z" fill="#EDAF02" stroke="black" stroke-linecap="round"/>
<path d="M361.149 207.768C358.947 229.614 428.993 226.046 421.601 207.749L361.149 207.768Z" fill="#EDAF02" stroke="black" stroke-linecap="round"/>
<path d="M361.136 204.962C359.077 225.319 428.991 222.047 421.599 203.751L361.136 204.962Z" fill="#EDAF02" stroke="black" stroke-linecap="round"/>
<circle cx="254.188" cy="189.327" r="26.7958" fill="#EDAF02" stroke="black"/>
<circle cx="254.188" cy="189.327" r="21.9512" fill="#EDAF02" stroke="black"/>
<path d="M80.5049 126.071V126.081C80.5049 136.168 79.3497 145.208 77.5349 151.648C76.6227 154.885 75.5827 157.323 74.5359 158.894C73.4264 160.56 72.7042 160.697 72.5449 160.697C72.3856 160.697 71.6634 160.56 70.5539 158.894C69.5071 157.323 68.4671 154.885 67.5548 151.648C65.7401 145.208 64.5849 136.168 64.5849 126.081C64.5849 115.993 65.7401 106.953 67.5548 100.513C68.4671 97.2763 69.5071 94.8382 70.5539 93.2671C71.6634 91.6019 72.3856 91.4641 72.5449 91.4641C72.761 91.4641 73.4882 91.6224 74.575 93.1877C75.6148 94.6854 76.6567 97.034 77.5712 100.21C79.3907 106.528 80.5474 115.558 80.5049 126.071Z" fill="#A59F80" stroke="black" stroke-width="5"/>
<path d="M79.6343 126.081C79.6343 135.346 78.787 143.718 77.4243 149.761C76.742 152.787 75.9365 155.201 75.0591 156.846C74.6202 157.669 74.1758 158.276 73.7401 158.672C73.3072 159.064 72.9102 159.226 72.5469 159.226C72.1836 159.226 71.7867 159.064 71.3538 158.672C70.918 158.276 70.4737 157.669 70.0348 156.846C69.1574 155.201 68.3519 152.787 67.6696 149.761C66.3068 143.718 65.4595 135.346 65.4595 126.081C65.4595 116.816 66.3068 108.443 67.6696 102.4C68.3519 99.375 69.1574 96.9609 70.0348 95.3153C70.4737 94.4921 70.918 93.8853 71.3538 93.4899C71.7867 93.0971 72.1836 92.9361 72.5469 92.9361C72.9102 92.9361 73.3072 93.0971 73.7401 93.4899C74.1758 93.8853 74.6202 94.4921 75.0591 95.3153C75.9365 96.9609 76.742 99.375 77.4243 102.4C78.787 108.443 79.6343 116.816 79.6343 126.081Z" fill="#995E33" stroke="black"/>
<path d="M74.0654 162.474C74.9881 161.736 76.1306 160.465 77.2727 158.282C79.7319 153.581 82.2094 144.612 82.4763 127.468C82.7649 108.935 80.2903 99.2645 77.6901 94.2079C76.4556 91.807 75.1886 90.4383 74.169 89.6604H124.324V162.474H74.0654Z" fill="#A59F80" stroke="black"/>
<line x1="87.0014" y1="88.8476" x2="95.6598" y2="162.633" stroke="black" stroke-width="2"/>
<line x1="99.4458" y1="88.8476" x2="108.104" y2="162.633" stroke="black" stroke-width="2"/>
<line x1="111.888" y1="88.8476" x2="120.546" y2="162.633" stroke="black" stroke-width="2"/>
<rect width="14.8467" height="14.8467" transform="matrix(0.75 0.933013 0 1 5.73706 217.656)" fill="#93AAFC"/>
<rect width="14.8467" height="14.8467" transform="matrix(0.75 0.933013 -0.75 0.0669873 16.8713 216.662)" fill="#BDCBFD"/>
<rect width="14.8467" height="14.8467" transform="matrix(0.75 0.933013 0 1 16.8713 201.815)" fill="#93AAFC"/>
<rect width="14.8467" height="14.8467" transform="matrix(0.75 0.933013 -0.75 0.0669873 28.0079 200.82)" fill="#BDCBFD"/>
<rect width="14.8467" height="14.8467" transform="matrix(0.75 0.933013 0 1 28.0079 185.974)" fill="#93AAFC"/>
<rect width="14.8467" height="14.8467" transform="matrix(0.75 0.933013 -0.75 0.0669873 39.1422 184.979)" fill="#BDCBFD"/>
<rect width="14.8467" height="14.8467" transform="matrix(0.75 0.933013 0 1 39.1422 170.132)" fill="#93AAFC"/>
<rect width="14.8467" height="14.8467" transform="matrix(0.75 0.933013 -0.75 0.0669873 50.2764 169.138)" fill="#BDCBFD"/>
<rect width="14.8467" height="14.8467" transform="matrix(0.75 0.933013 0 1 50.2764 154.291)" fill="#93AAFC"/>
<rect width="14.8467" height="14.8467" transform="matrix(0.75 0.933013 -0.75 0.0669873 61.4131 153.297)" fill="#BDCBFD"/>
<path d="M16.8713 246.355V231.508L28.0063 230.514V215.667L39.1413 214.673V199.826L50.2763 198.831V183.985L61.4113 182.99V168.143L72.5463 167.149V241.382L16.8713 246.355Z" fill="#6580E1"/>
<path d="M123.992 108.957C157.618 112.949 174.907 108.408 203.178 89.1604" stroke="black" stroke-width="2"/>
<path d="M123.994 143.401C157.621 139.409 174.909 143.95 203.18 163.198" stroke="black" stroke-width="2"/>
<path d="M184.132 101.559L201.602 112.767L186.304 122.528L200.29 130.832L185.43 138.553L197.085 148.897L181.934 150.354" stroke="black" stroke-width="2"/>
<circle cx="58.2239" cy="137.341" r="17.8024" fill="#EDAF02" stroke="black"/>
<circle cx="58.2239" cy="137.341" r="14.554" fill="#EDAF02" stroke="black"/>
<path d="M285.463 168.009L285.48 167.992L285.495 167.974C289.684 162.974 291.248 160.193 292.177 157.057C292.583 155.685 292.867 154.249 293.201 152.554C293.244 152.336 293.288 152.113 293.333 151.886C293.657 150.26 294.046 148.372 294.638 146.046C295.305 148.741 295.499 152.577 294.731 156.71C293.797 161.747 291.443 167.175 286.841 171.473L286.832 171.482L286.823 171.491C278.529 180.052 267.687 179.767 258.67 176.697L258.67 176.697L258.664 176.695C256.669 176.046 245.805 171.054 242.229 156.806C242.593 157.391 242.941 157.964 243.282 158.526C243.604 159.056 243.921 159.577 244.241 160.092C245.318 161.826 246.423 163.467 247.866 165.048C250.761 168.22 254.968 171.095 262.943 174.085L262.971 174.096L262.999 174.103C265.958 174.832 269.954 174.89 274.008 173.984C278.065 173.078 282.217 171.197 285.463 168.009Z" fill="#EDAF02" stroke="black"/>
<circle cx="267.695" cy="147.711" r="26.7958" fill="#EDAF02" stroke="black"/>
<circle cx="267.696" cy="147.711" r="21.9512" fill="#EDAF02" stroke="black"/>
<circle cx="290.146" cy="219.059" r="26.7958" fill="#EDAF02" stroke="black"/>
<circle cx="290.146" cy="219.059" r="21.9512" fill="#EDAF02" stroke="black"/>
<rect x="246.799" y="120.541" width="6.21338" height="53.5615" transform="rotate(45.9162 246.799 120.541)" fill="#EDAF02" stroke="black"/>
<rect x="0.0113067" y="0.707016" width="6.21338" height="53.5615" transform="matrix(-0.69571 0.718323 0.718323 0.69571 291.888 123.942)" fill="#EDAF02" stroke="black"/>
<path d="M314.61 190.954C313.572 190.422 326.143 166.107 330.812 165.559C327.57 165.114 325.327 162.794 325.606 159.877C326.003 156.313 328.917 154.139 331.662 154.459C335.125 155.285 336.121 157.847 336.125 160.196C336.128 162.362 334.016 164.927 331.883 165.51C338.093 165.1 341.411 192.31 340.856 193.492C340.286 194.708 339.784 194.159 339.784 194.159C339.784 194.159 341.181 233.798 340.954 234.21C340.726 234.622 338.702 234.363 338.702 234.363L338.674 239.401C338.674 239.401 339.455 243.768 338.834 245.457C338.212 247.146 329.732 246.803 329.732 246.803C329.732 246.803 317.491 248.285 316.044 245.616C314.598 242.948 320.825 239.082 320.825 239.082L320.654 234.521C320.654 234.521 317.298 234.932 317.103 233.934C316.908 232.935 318.913 203.544 318.913 203.544L320.231 200.314C316.319 207.266 308.426 217.829 306.164 212.946C303.016 206.153 318.037 193.47 315.691 191.507L314.61 190.954Z" fill="#D9D9D9"/>
<path d="M331.344 165.614C327.195 164.078 313.529 190.4 314.61 190.954C315.691 191.507 315.691 191.507 315.691 191.507M331.344 165.614C337.901 163.525 341.427 192.276 340.856 193.492C340.286 194.708 339.784 194.159 339.784 194.159M331.344 165.614C333.645 165.362 336.128 162.545 336.125 160.196C336.121 157.847 335.125 155.285 331.662 154.459C328.917 154.139 326.003 156.313 325.606 159.877C325.312 162.951 327.818 165.362 331.344 165.614ZM328.794 194.3L332.778 178.842M328.794 194.3C328.794 194.3 328.2 197.313 327.678 197.647C327.156 197.981 322.419 194.953 322.419 194.953M328.794 194.3L339.784 194.159M315.691 191.507C318.037 193.47 303.016 206.153 306.164 212.946C309.311 219.74 323.356 196.638 322.419 194.953M315.691 191.507L322.419 194.953M322.419 194.953L318.913 203.544C318.913 203.544 316.908 232.935 317.103 233.934C317.298 234.932 320.654 234.521 320.654 234.521M339.784 194.159C339.784 194.159 341.181 233.798 340.954 234.21C340.726 234.622 338.702 234.363 338.702 234.363M334.053 234.142L335.965 201.631M334.053 234.142L329.735 234.264M334.053 234.142L338.702 234.363M320.654 234.521L320.825 239.082M320.654 234.521L329.735 234.264M320.825 239.082L329.75 239.242M320.825 239.082C320.825 239.082 314.598 242.948 316.044 245.616C317.491 248.285 329.732 246.803 329.732 246.803M329.75 239.242L329.735 234.264M329.75 239.242L329.732 246.803M329.75 239.242L338.674 239.401M329.732 246.803C329.732 246.803 338.212 247.146 338.834 245.457C339.455 243.768 338.674 239.401 338.674 239.401M338.674 239.401L338.702 234.363" stroke="black" stroke-width="2" stroke-linecap="round"/>
<path d="M283.313 64.4278C286.192 61.1059 288.178 56.6551 289.958 50.7566C291.302 56.8607 293.19 61.2814 296.191 64.5388C299.1 67.6954 302.966 69.667 308.124 71.0975C302.995 72.4559 299.164 74.4254 296.273 77.6052C293.545 80.6051 291.729 84.6006 290.37 89.9511C289.45 85.3387 287.824 81.7827 285.147 78.9172C282.046 75.5978 277.622 73.3057 271.557 71.284C276.679 69.8979 280.414 67.7724 283.313 64.4278Z" fill="#E1E5D6" stroke="black" stroke-width="2"/>
<path d="M301.264 95.3892C302.834 93.5774 303.969 91.2426 304.955 88.2839C305.757 91.3407 306.858 93.6747 308.508 95.4655C310.09 97.1826 312.112 98.3315 314.675 99.1801C312.13 100.001 310.127 101.15 308.555 102.879C307.105 104.474 306.076 106.504 305.287 109.08C304.683 106.921 303.753 105.154 302.369 103.673C300.626 101.807 298.235 100.474 295.093 99.3281C297.679 98.4718 299.669 97.2287 301.264 95.3892Z" fill="#E1E5D6" stroke="black" stroke-width="2"/>
<path d="M122.404 82.4227C125.209 79.1857 127.147 74.8547 128.883 69.1247C130.197 75.0541 132.041 79.3567 134.966 82.5317C137.799 85.6071 141.561 87.5329 146.569 88.9308C141.589 90.2593 137.863 92.1833 135.046 95.2811C132.391 98.201 130.619 102.083 129.292 107.271C128.388 102.803 126.801 99.3507 124.197 96.564C121.172 93.3264 116.864 91.088 110.966 89.1159C115.942 87.7591 119.579 85.6826 122.404 82.4227Z" fill="#E1E5D6" stroke="black" stroke-width="2"/>
<path d="M292.625 11.3684C294.122 9.64789 295.208 7.43846 296.151 4.65009C296.922 7.53062 297.979 9.74063 299.553 11.4425C301.058 13.0698 302.975 14.1659 305.393 14.9775C302.993 15.7638 301.095 16.8606 299.599 18.4987C298.218 20.0107 297.233 21.9278 296.477 24.3486C295.893 22.3251 295.003 20.6605 293.688 19.2598C292.024 17.4861 289.75 16.2136 286.774 15.1218C289.216 14.3 291.106 13.1135 292.625 11.3684Z" fill="#E1E5D6" stroke="black" stroke-width="2"/>
<path d="M421.824 204.209C421.824 205.365 421.098 206.551 419.585 207.707C418.079 208.856 415.869 209.913 413.094 210.809C407.548 212.6 399.855 213.716 391.336 213.716C382.816 213.716 375.124 212.6 369.578 210.809C366.802 209.913 364.592 208.856 363.087 207.707C361.574 206.551 360.848 205.365 360.848 204.209C360.848 203.053 361.574 201.866 363.087 200.711C364.592 199.562 366.802 198.505 369.578 197.609C375.124 195.818 382.816 194.702 391.336 194.702C399.855 194.702 407.548 195.818 413.094 197.609C415.869 198.505 418.079 199.562 419.585 200.711C421.098 201.866 421.824 203.053 421.824 204.209Z" fill="#EDAF02" stroke="black"/>
<path d="M414.375 204.209C414.375 205.033 413.858 205.903 412.722 206.771C411.593 207.632 409.929 208.43 407.827 209.109C403.629 210.464 397.798 211.311 391.334 211.311C384.871 211.311 379.04 210.464 374.842 209.109C372.74 208.43 371.076 207.632 369.947 206.771C368.811 205.903 368.294 205.033 368.294 204.209C368.294 203.385 368.811 202.515 369.947 201.647C371.076 200.785 372.74 199.988 374.842 199.309C379.04 197.953 384.871 197.107 391.334 197.107C397.798 197.107 403.629 197.953 407.827 199.309C409.929 199.988 411.593 200.785 412.722 201.647C413.858 202.515 414.375 203.385 414.375 204.209Z" fill="#EDAF02" stroke="black"/>
<path fill-rule="evenodd" clip-rule="evenodd" d="M296.056 209.771C292.4 207.66 287.894 207.66 284.238 209.771C282.354 210.858 280.843 212.421 279.82 214.258L290.145 208.297L290.145 210.226L278.774 216.791C278.577 217.488 278.443 218.207 278.376 218.94L283.337 216.076L283.337 218.004L278.36 220.877C278.405 221.488 278.497 222.089 278.634 222.677L283.337 219.961L283.337 221.89L279.141 224.313C279.576 225.424 280.177 226.464 280.923 227.396L285.131 224.966L286.799 225.936L282.09 228.654C282.526 229.059 282.995 229.435 283.494 229.774L288.47 226.901L290.138 227.871L285.182 230.731C285.854 231.043 286.548 231.288 287.256 231.466L298.62 224.905L300.285 225.872L289.972 231.824C292.07 231.855 294.176 231.327 296.056 230.242C299.713 228.13 301.966 224.229 301.966 220.006C301.966 215.784 299.713 211.882 296.056 209.771ZM296.955 216.076L290.147 212.145L283.339 216.076L290.147 220.006L296.955 216.076ZM290.147 220.006L296.955 216.076V223.937L290.147 227.867V220.006Z" fill="url(#paint0_linear_2_859)"/>
<path fill-rule="evenodd" clip-rule="evenodd" d="M204.903 174.247C201.246 172.135 196.741 172.135 193.084 174.247C191.2 175.334 189.689 176.897 188.666 178.734L198.992 172.773L198.991 174.701L187.62 181.267C187.423 181.964 187.289 182.683 187.223 183.416L192.184 180.551L192.184 182.48L187.207 185.353C187.252 185.964 187.344 186.565 187.48 187.153L192.184 184.437L192.184 186.365L187.987 188.788C188.422 189.9 189.023 190.94 189.77 191.872L193.978 189.442L195.646 190.412L190.937 193.129C191.372 193.535 191.841 193.91 192.34 194.25L197.317 191.377L198.985 192.347L194.028 195.207C194.7 195.519 195.395 195.763 196.102 195.942L207.466 189.381L209.132 190.347L198.818 196.299C200.917 196.33 203.022 195.803 204.903 194.717C208.559 192.606 210.812 188.704 210.812 184.482C210.812 180.259 208.559 176.358 204.903 174.247ZM205.801 180.552L198.993 176.621L192.185 180.551L198.993 184.482V184.482L198.993 184.482V184.482V192.343L205.801 188.413V180.552Z" fill="url(#paint1_linear_2_859)"/>
<path fill-rule="evenodd" clip-rule="evenodd" d="M273.606 137.476C269.949 135.364 265.444 135.364 261.787 137.476C259.903 138.564 258.392 140.127 257.369 141.964L267.696 136.002L267.695 137.931L256.323 144.496C256.126 145.193 255.992 145.912 255.926 146.644L260.886 143.78L260.885 145.709L255.91 148.582C255.955 149.192 256.047 149.794 256.183 150.381L260.886 147.666L260.885 149.595L256.69 152.017C257.125 153.129 257.727 154.169 258.473 155.101L262.682 152.671L264.35 153.641L259.64 156.359C260.076 156.765 260.545 157.14 261.044 157.48L266.021 154.606L267.689 155.576L262.732 158.437C263.404 158.748 264.099 158.993 264.806 159.171L276.17 152.61L277.836 153.577L267.523 159.528C269.621 159.559 271.726 159.032 273.606 157.946C277.263 155.835 279.515 151.933 279.515 147.711C279.515 143.489 277.263 139.587 273.606 137.476ZM274.504 143.78L267.696 139.85L260.888 143.78L267.696 147.711L274.504 143.78ZM267.696 147.711L274.504 143.78V151.642L267.696 155.572V147.711Z" fill="url(#paint2_linear_2_859)"/>
<circle cx="223.234" cy="200.323" r="26.7958" fill="#EDAF02" stroke="black"/>
<circle cx="223.234" cy="200.323" r="21.9512" fill="#EDAF02" stroke="black"/>
<path fill-rule="evenodd" clip-rule="evenodd" d="M229.144 190.088C225.487 187.976 220.982 187.976 217.325 190.088C215.441 191.176 213.93 192.739 212.907 194.576L223.234 188.614L223.234 190.542L211.861 197.108C211.664 197.806 211.53 198.525 211.464 199.258L216.426 196.393L216.426 196.392V196.393L216.426 196.392L223.234 192.462L230.042 196.392V204.253L223.234 208.184V200.323L216.427 196.393L216.426 198.321L211.448 201.195C211.493 201.805 211.585 202.407 211.722 202.995L216.427 200.278L216.426 202.207L212.229 204.63C212.664 205.742 213.265 206.782 214.011 207.713L218.221 205.283L219.888 206.253L215.179 208.971C215.614 209.377 216.083 209.752 216.582 210.092L221.56 207.218L223.227 208.188L218.27 211.049C218.942 211.36 219.637 211.605 220.344 211.783L231.709 205.222L233.375 206.188L223.06 212.14C225.159 212.171 227.264 211.644 229.144 210.558C232.801 208.447 235.054 204.545 235.054 200.323C235.054 196.101 232.801 192.199 229.144 190.088ZM223.234 208.184L223.234 208.184V208.184L223.234 208.184Z" fill="url(#paint3_linear_2_859)"/>
<circle cx="290.146" cy="170.029" r="26.7958" fill="#EDAF02" stroke="black"/>
<circle cx="290.146" cy="170.029" r="21.9512" fill="#EDAF02" stroke="black"/>
<path fill-rule="evenodd" clip-rule="evenodd" d="M296.056 160.024C292.4 157.913 287.894 157.913 284.238 160.024C282.354 161.111 280.843 162.674 279.82 164.511L290.145 158.55L290.145 160.479L278.774 167.044C278.577 167.741 278.443 168.46 278.376 169.193L283.337 166.329L283.337 168.257L278.36 171.13C278.405 171.741 278.497 172.342 278.634 172.93L283.337 170.214L283.337 172.143L279.141 174.566C279.576 175.677 280.177 176.717 280.923 177.649L285.131 175.219L286.799 176.189L282.09 178.907C282.526 179.312 282.994 179.687 283.494 180.027L288.47 177.154L290.138 178.124L285.181 180.984C285.854 181.296 286.548 181.541 287.256 181.719L298.62 175.158L300.285 176.125L289.972 182.077C292.07 182.108 294.176 181.58 296.056 180.494C299.713 178.383 301.966 174.482 301.966 170.259C301.966 166.037 299.713 162.135 296.056 160.024ZM296.955 166.329L290.147 162.398L283.339 166.329L290.147 170.259V178.12L296.955 174.19V166.329Z" fill="url(#paint4_linear_2_859)"/>
<path fill-rule="evenodd" clip-rule="evenodd" d="M62.8334 129.362C59.9828 127.716 56.4707 127.716 53.6201 129.362C52.1517 130.21 50.9737 131.428 50.1766 132.86L58.225 128.213L58.2246 129.716L49.3609 134.834C49.207 135.378 49.1025 135.939 49.0508 136.511L52.9192 134.277L52.9182 134.277L58.2253 131.213L63.5324 134.277L58.226 137.341L52.9206 134.277L52.9202 135.78L49.0386 138.021C49.0737 138.497 49.1455 138.966 49.2519 139.424L52.9206 137.306L52.9202 138.809L49.6472 140.699C49.9864 141.565 50.4552 142.376 51.0371 143.102L54.3191 141.207L55.6192 141.963L51.947 144.083C52.2863 144.399 52.6514 144.691 53.0402 144.956L56.92 142.716L58.22 143.472L54.356 145.702C54.8802 145.944 55.4218 146.135 55.9733 146.274L64.8325 141.16L66.131 141.913L58.0907 146.553C59.7266 146.577 61.3675 146.166 62.8334 145.32C65.684 143.674 67.4401 140.632 67.4401 137.341C67.4401 134.049 65.684 131.008 62.8334 129.362ZM52.92 134.277L52.9193 134.277V134.277L52.92 134.277ZM58.2253 143.469L58.2261 143.469L58.2253 143.468V143.469ZM58.2264 143.468V137.341L58.2261 137.341L63.5324 134.277V140.405L58.2264 143.468Z" fill="url(#paint5_linear_2_859)"/>
<path d="M8.87416 162.947C11.4351 150.62 14.7319 142.826 20.478 140.868C17.9114 140.738 16.0207 137.202 16.1266 135.227C16.4211 132.953 18.5342 130.84 21.7673 131.037C24.7845 131.596 25.9857 133.62 25.9857 136.112C26.0079 138.514 23.2497 141.139 20.478 140.868C26.4687 141.668 27.0807 141.108 40.4624 147.314C45.5025 148.072 48.2703 148.133 53.0332 147.153L53.5692 148.654C55.7791 146.945 58.0371 145.065 60.3605 146.427C63.1584 148.068 59.9741 152.256 55.4425 153.863L56.2565 156.178C50.6699 157.95 47.4742 158.627 41.5905 158.918C37.3895 159.047 35.0246 158.691 31.0343 157.233L29.2995 166.129C36.8725 169.168 39.7536 171.122 42.5575 175.035C44.6845 178.824 44.8515 183.039 43.2022 194.535C43.2022 194.535 48.1243 198.474 45.942 200.015C43.7596 201.556 34.2355 200.779 33.3711 199.854C32.5068 198.928 33.2176 194.411 33.2176 194.411L30.309 194.374C29.2179 185.621 28.5524 182.174 27.5049 180.77L22.5685 177.536C20.4729 194.357 20.5959 193.896 14.0314 209.524C14.9361 210.3 16.0128 213.561 15.1596 215.97C13.4248 220.869 4.93335 213.693 2.42759 212.102C0.0863584 210.616 2.30055 206.658 3.91758 206.541C3.45062 206.481 2.61544 206.327 2.26643 205.978C1.76917 205.48 10.8978 163.202 10.8978 163.202L8.87416 162.947Z" fill="#E1E5D6"/>
<path d="M20.478 140.868C14.7319 142.826 11.4351 150.62 8.87416 162.947L10.8978 163.202M20.478 140.868C26.4687 141.668 27.0807 141.108 40.4624 147.314C45.5025 148.072 48.2703 148.133 53.0332 147.153L53.5692 148.654M20.478 140.868C23.2497 141.139 26.0079 138.514 25.9857 136.112C25.9857 133.62 24.7845 131.596 21.7673 131.037C18.5342 130.84 16.4211 132.953 16.1266 135.227C16.0207 137.202 17.9114 140.738 20.478 140.868ZM29.1809 156.339L31.0343 157.233M31.0343 157.233C35.0246 158.691 37.3895 159.047 41.5905 158.918C47.4742 158.627 50.6699 157.95 56.2565 156.178L55.4425 153.863M31.0343 157.233L29.2995 166.129M29.2995 166.129L10.8978 163.202M29.2995 166.129C36.8725 169.168 39.7536 171.122 42.5575 175.035C44.6845 178.824 44.8515 183.039 43.2022 194.535M10.8978 163.202C10.8978 163.202 1.76917 205.48 2.26643 205.978C2.76369 206.476 4.24784 206.575 4.24784 206.575M14.0314 209.524C20.5959 193.896 20.4728 194.357 22.5685 177.536M14.0314 209.524C14.9361 210.3 16.0128 213.561 15.1596 215.97C13.4248 220.869 4.93335 213.693 2.42759 212.102C-0.0781674 210.512 2.63423 206.089 4.24784 206.575M14.0314 209.524C10.2107 208.372 4.24784 206.575 4.24784 206.575M22.5685 177.536L17.4159 174.068M22.5685 177.536L27.5048 180.77C28.5524 182.174 29.2179 185.621 30.309 194.374L33.2176 194.411M43.2022 194.535C43.2022 194.535 48.1243 198.474 45.942 200.015C43.7596 201.556 34.2355 200.779 33.3711 199.854C32.5068 198.928 33.2176 194.411 33.2176 194.411M43.2022 194.535L33.2176 194.411M53.5692 148.654C55.7791 146.945 58.0371 145.065 60.3605 146.427C63.1584 148.068 59.9741 152.256 55.4425 153.863M53.5692 148.654L55.4425 153.863" stroke="black" stroke-width="2" stroke-linecap="round"/>
<defs>
<linearGradient id="paint0_linear_2_859" x1="290.163" y1="208.187" x2="290.163" y2="231.825" gradientUnits="userSpaceOnUse">
<stop stop-color="#AD8104"/>
<stop offset="1" stop-color="#AE7F00"/>
</linearGradient>
<linearGradient id="paint1_linear_2_859" x1="199.009" y1="172.663" x2="199.009" y2="196.301" gradientUnits="userSpaceOnUse">
<stop stop-color="#AD8104"/>
<stop offset="1" stop-color="#AE7F00"/>
</linearGradient>
<linearGradient id="paint2_linear_2_859" x1="267.713" y1="135.892" x2="267.713" y2="159.53" gradientUnits="userSpaceOnUse">
<stop stop-color="#AD8104"/>
<stop offset="1" stop-color="#AE7F00"/>
</linearGradient>
<linearGradient id="paint3_linear_2_859" x1="223.251" y1="188.504" x2="223.251" y2="212.142" gradientUnits="userSpaceOnUse">
<stop stop-color="#AD8104"/>
<stop offset="1" stop-color="#AE7F00"/>
</linearGradient>
<linearGradient id="paint4_linear_2_859" x1="290.163" y1="158.44" x2="290.163" y2="182.078" gradientUnits="userSpaceOnUse">
<stop stop-color="#AD8104"/>
<stop offset="1" stop-color="#AE7F00"/>
</linearGradient>
<linearGradient id="paint5_linear_2_859" x1="58.2394" y1="128.127" x2="58.2394" y2="146.554" gradientUnits="userSpaceOnUse">
<stop stop-color="#AD8104"/>
<stop offset="1" stop-color="#AE7F00"/>
</linearGradient>
</defs>
</svg>
