<svg width="248" height="242" viewBox="0 0 248 242" fill="none" xmlns="http://www.w3.org/2000/svg">
<g clip-path="url(#clip0_2_789)">
<path d="M120.117 185.125C156.309 185.125 185.649 155.786 185.649 119.594C185.649 83.4018 156.309 54.0623 120.117 54.0623C83.9251 54.0623 54.5857 83.4018 54.5857 119.594C54.5857 155.786 83.9251 185.125 120.117 185.125Z" fill="url(#paint0_linear_2_789)"/>
<path d="M101.679 36.8201L100.006 29.2956C65.1092 37.0356 37.5596 64.5859 29.8188 99.4832L37.3475 101.153C44.4402 69.1689 69.6921 43.9162 101.679 36.8201Z" fill="#EDAF02"/>
<path d="M138.554 202.363L140.227 209.891C175.124 202.147 202.67 174.601 210.414 139.704L202.886 138.031C195.793 170.018 170.541 195.27 138.554 202.363Z" fill="#EDAF02"/>
<g clip-path="url(#clip1_2_789)">
<ellipse cx="66.2548" cy="173.932" rx="58.0534" ry="58.0534" fill="url(#paint1_linear_2_789)"/>
<ellipse cx="66.2548" cy="173.932" rx="54.6239" ry="54.6239" fill="url(#paint2_linear_2_789)"/>
<path d="M66.1504 108.4C30.0155 108.4 0.618896 137.797 0.618896 173.932C0.618896 210.067 30.0155 239.463 66.1495 239.463C102.284 239.463 131.68 210.067 131.68 173.932C131.68 137.797 102.284 108.4 66.1504 108.4ZM66.1504 231.753C34.2678 231.753 8.32925 205.814 8.32925 173.931C8.32925 142.048 34.2678 116.109 66.1504 116.109C98.0329 116.109 123.971 142.049 123.971 173.932C123.971 205.815 98.0329 231.753 66.1504 231.753Z" fill="#EDAF02"/>
<path fill-rule="evenodd" clip-rule="evenodd" d="M62.9439 135.264H55.3256V142.61C54.4493 142.896 53.5979 143.219 52.7715 143.58C48.7872 145.327 45.6657 147.766 43.4072 150.899C41.17 154.009 40.062 157.642 40.0833 161.797C40.062 166.911 41.7133 170.948 45.0372 173.91C48.3823 176.85 52.9526 178.949 58.7481 180.206L65.268 181.612C67.697 182.145 69.6252 182.72 71.0528 183.338C72.4803 183.935 73.5031 184.617 74.121 185.384C74.7602 186.129 75.0904 187.003 75.1117 188.004C75.0904 189.07 74.7495 190.018 74.089 190.849C73.4285 191.68 72.459 192.33 71.1806 192.798C69.9022 193.267 68.3149 193.502 66.4185 193.502C64.16 193.502 62.2104 193.15 60.5698 192.447C58.9505 191.744 57.6934 190.71 56.7985 189.347C55.9036 187.983 55.4029 186.3 55.2964 184.297H38.4214C38.4427 189.773 39.6146 194.269 41.937 197.784C44.2808 201.279 47.562 203.867 51.7808 205.551C52.73 205.927 53.7156 206.262 54.7374 206.555V213.58H62.3558V207.902C63.7456 208.018 65.1851 208.075 66.6742 208.075C67.4581 208.075 68.226 208.06 68.9779 208.029V213.58H76.5963V207.06C78.1222 206.711 79.5556 206.271 80.8965 205.742C84.8596 204.187 87.9065 201.918 90.0372 198.935C92.1678 195.952 93.2438 192.308 93.2651 188.004C93.2438 185.511 92.839 183.21 92.0507 181.101C91.2836 178.992 90.0798 177.095 88.4391 175.412C86.7985 173.708 84.6891 172.227 82.111 170.97C79.5329 169.712 76.4328 168.7 72.8106 167.933L67.4413 166.783C65.8859 166.463 64.5435 166.101 63.4143 165.696C62.285 165.291 61.3582 164.844 60.6337 164.354C59.9093 163.842 59.3766 163.278 59.0357 162.66C58.7161 162.021 58.5776 161.307 58.6203 160.519C58.6416 159.56 58.9292 158.708 59.4832 157.962C60.0372 157.216 60.8894 156.63 62.04 156.204C63.2119 155.757 64.714 155.533 66.5464 155.533C69.4228 155.533 71.5641 156.129 72.9704 157.323C74.3979 158.516 75.197 160.178 75.3674 162.308H92.3703C92.3489 158.026 91.2836 154.286 89.1742 151.09C87.0862 147.873 84.1139 145.38 80.2573 143.612C79.2789 143.163 78.2546 142.771 77.1844 142.436V135.264H69.566V141.06C68.5868 140.993 67.5803 140.959 66.5464 140.959C65.3123 140.959 64.1115 141.009 62.9439 141.108V135.264Z" fill="url(#paint3_linear_2_789)"/>
</g>
</g>
<g clip-path="url(#clip2_2_789)">
<circle cx="181.957" cy="65.5688" r="58.0534" fill="url(#paint4_linear_2_789)"/>
<ellipse cx="181.957" cy="65.5688" rx="54.6239" ry="54.6239" fill="url(#paint5_linear_2_789)"/>
<path d="M181.852 0.0373535C145.718 0.0373535 116.321 29.4339 116.321 65.5688C116.321 101.704 145.718 131.1 181.852 131.1C217.986 131.1 247.382 101.704 247.382 65.5688C247.382 29.4339 217.987 0.0373535 181.852 0.0373535ZM181.852 123.39C149.97 123.39 124.031 97.4513 124.031 65.568C124.031 33.6846 149.97 7.74606 181.852 7.74606C213.735 7.74606 239.674 33.6855 239.674 65.5688C239.674 97.4521 213.735 123.39 181.852 123.39Z" fill="#EDAF02"/>
<path fill-rule="evenodd" clip-rule="evenodd" d="M191.957 33.3492C185.769 29.7765 178.145 29.7765 171.957 33.3492L159.054 40.7987C154.922 43.1847 151.849 46.922 150.263 51.2699L181.957 32.9715L181.956 38.34L149.07 57.3271C149.059 57.5903 149.054 57.8544 149.054 58.1192V62.68L163.004 54.6262L163.002 59.9948L149.054 68.0479V73.0182C149.054 73.1773 149.056 73.336 149.06 73.4944L163.004 65.4439L163.002 70.8125L149.801 78.4344C150.71 81.665 152.42 84.6188 154.769 87.0163L168 79.3776L172.642 82.0778L158.695 90.1265C158.814 90.1984 158.934 90.2691 159.054 90.3388L163.347 92.8171L177.295 84.7639L181.938 87.4641L168.003 95.5056L171.957 97.7883C172.195 97.9258 172.436 98.058 172.678 98.1849L205.548 79.2071L210.186 81.898L178.522 100.171C183.071 100.963 187.833 100.169 191.957 97.7883L204.86 90.3388C211.048 86.7661 214.86 80.1636 214.86 73.0182V58.1192C214.86 50.9739 211.048 44.3713 204.86 40.7987L191.957 33.3492ZM200.91 54.6263L181.957 43.6838L163.004 54.6263L163.004 54.6263L163.004 54.6263V54.6263L181.957 65.5687V87.4536L200.91 76.5112V54.6263Z" fill="url(#paint6_linear_2_789)"/>
</g>
<defs>
<linearGradient id="paint0_linear_2_789" x1="120.117" y1="54.0623" x2="120.117" y2="185.125" gradientUnits="userSpaceOnUse">
<stop stop-color="#764BA2"/>
<stop offset="1" stop-color="#667DEA"/>
</linearGradient>
<linearGradient id="paint1_linear_2_789" x1="66.2548" y1="115.878" x2="66.2548" y2="231.985" gradientUnits="userSpaceOnUse">
<stop stop-color="#AE7F00"/>
<stop offset="1" stop-color="#DDA202"/>
</linearGradient>
<linearGradient id="paint2_linear_2_789" x1="66.2548" y1="119.308" x2="66.2548" y2="228.556" gradientUnits="userSpaceOnUse">
<stop stop-color="#FFCD00"/>
<stop offset="1" stop-color="#FFCD00" stop-opacity="0.42"/>
</linearGradient>
<linearGradient id="paint3_linear_2_789" x1="86.3819" y1="70.5436" x2="86.3819" y2="360.128" gradientUnits="userSpaceOnUse">
<stop stop-color="#EDAF02"/>
<stop offset="1" stop-color="#AE7F00"/>
</linearGradient>
<linearGradient id="paint4_linear_2_789" x1="181.957" y1="7.51538" x2="181.957" y2="123.622" gradientUnits="userSpaceOnUse">
<stop stop-color="#AE7F00"/>
<stop offset="1" stop-color="#DDA202"/>
</linearGradient>
<linearGradient id="paint5_linear_2_789" x1="181.957" y1="10.9449" x2="181.957" y2="120.193" gradientUnits="userSpaceOnUse">
<stop stop-color="#FFCD00"/>
<stop offset="1" stop-color="#FFCD00" stop-opacity="0.42"/>
</linearGradient>
<linearGradient id="paint6_linear_2_789" x1="181.957" y1="30.6697" x2="181.957" y2="100.468" gradientUnits="userSpaceOnUse">
<stop stop-color="#EDAF02"/>
<stop offset="1" stop-color="#AE7F00"/>
</linearGradient>
<clipPath id="clip0_2_789">
<rect width="238.996" height="241.718" fill="white" transform="translate(0.61792 0.0955811)"/>
</clipPath>
<clipPath id="clip1_2_789">
<rect width="130.851" height="131.005" fill="white" transform="translate(0.82959 108.459)"/>
</clipPath>
<clipPath id="clip2_2_789">
<rect width="130.851" height="132.496" fill="white" transform="translate(116.532 0.0955811)"/>
</clipPath>
</defs>
</svg>
