<svg className="p2p-icon" width="20" height="20" viewBox="0 0 44 44" fill="none" xmlns="http://www.w3.org/2000/svg">
  <circle cx="21.9999" cy="22.0702" r="21.516" fill="#6C757D" />
  <path d="M20.5 32.6771C20.5 33.5055 21.1716 34.1771 22 34.1771C22.8284 34.1771 23.5 33.5055 23.5 32.6771L20.5 32.6771ZM23.0607 10.4027C22.4749 9.81696 21.5251 9.81696 20.9393 10.4027L11.3934 19.9487C10.8076 20.5345 10.8076 21.4842 11.3934 22.07C11.9792 22.6558 12.9289 22.6558 13.5147 22.07L22 13.5847L30.4853 22.07C31.0711 22.6558 32.0208 22.6558 32.6066 22.07C33.1924 21.4842 33.1924 20.5345 32.6066 19.9487L23.0607 10.4027ZM23.5 32.6771L23.5 11.4634L20.5 11.4634L20.5 32.6771L23.5 32.6771Z" fill="white" />
</svg>