<svg className="p2p-icon" width="20" height="20" viewBox="0 0 44 44" fill="none" xmlns="http://www.w3.org/2000/svg">
  <circle cx="21.6449" cy="22.0702" r="21.516" fill="#6C757D" />
  <path d="M23.145 11.4634C23.145 10.635 22.4734 9.96344 21.645 9.96344C20.8165 9.96344 20.145 10.635 20.145 11.4634H23.145ZM20.5843 33.7378C21.1701 34.3235 22.1198 34.3235 22.7056 33.7378L32.2516 24.1918C32.8373 23.606 32.8373 22.6563 32.2516 22.0705C31.6658 21.4847 30.716 21.4847 30.1302 22.0705L21.645 30.5558L13.1597 22.0705C12.5739 21.4847 11.6241 21.4847 11.0384 22.0705C10.4526 22.6563 10.4526 23.606 11.0384 24.1918L20.5843 33.7378ZM20.145 11.4634L20.145 32.6771H23.145L23.145 11.4634H20.145Z" fill="white" />
</svg>